<svg
  version="1.1"
  xmlns="http://www.w3.org/2000/svg"
  xmlns:xlink="http://www.w3.org/1999/xlink"
>
  <defs/>
    <g transform="matrix(1,0,-0.02,1,-21.1,-42.4)">
      <path d="M 29.5 69.3 c 2.1,3.2 11.4,6.8 13.5,9.8 -0.7,0.3 -0.4,1.7 0.4,1.6 1.8,-0.2 3.6,-0.2 5.4,-0.1 -1.7,0.2 -3.4,0.6 -4.9,1.4 -0.8,0.5 -0.6,1.6 0.2,1.9 1.4,0.2 2.9,0.5 4.3,0.8 -1.4,0.2 -2.9,0.5 -4.2,1 -1,0.3 -2,1.7 0,1.9 3,0.9 6.1,1.5 9.3,1.8 1.5,0.2 1.5,-2.3 0,-2.4 -1.2,-0.1 -2.3,-0.2 -3.4,-0.4 1.8,-0.1 3.6,-0.2 5.4,-0.5 1.2,-0.2 1.1,-2 0,-2.3 -2,-0.5 -4,-0.9 -6.1,-1.3 l 0.5,-0.1 c 1.8,-0.3 3.5,-0.7 5.2,-0.8 1.2,-0.1 1.6,-1.9 0.3,-2.2 L 53.9,78.2 C 55.3,76.4 66,68.1 66.3,58.5 65.0,28.4 18.8,50.3 29.5,69.3 Z m 23.2,9.4 c -2.4,0.1 -6.3,-0.1 -8.7,0.1 -1,-2.6 -9.5,-6.1 -14.2,-12.1 -5.7,-9 26.3,-36.4 34.2,-9 1.5,8.1 -11.1,19.1 -11.3,20.9 z"></path>
    </g>
    <path d="M 20 30.5 c -2.5,-3 -8.2,-4.9 -9.6,-5.9 1.5,-1.3 5.2,-5.2 8.6,-9.5 0.5,-0.5 1.3,-0.5 2,0.1 -4,4.2 -8.7,8.6 -8.7,8.6 2.8,2.2 5.5,2.8 8.9,5.8 l -1.2,0.9 z"></path>
    <path d="M 29.4 13.3 c -2.8,5.5 -5.3,12 -6.4,17.7 l -1.2,0.7 c 0.1,-5.9 5.6,-16.4 6.3,-17.6 z"></path>
    <path d="M 30.8 13.8 c 1.9,2.9 4.8,4.3 7.7,5.7 1.4,0.3 -0.6,1.9 -9.5,11.9 l -1.4,0.3 0,0 c 3.1,-3.8 7.4,-7.4 9.7,-11.3 -2.9,-1.4 -5.8,-3.4 -7.6,-5.6 0.4,0 0.8,-0.8 1.1,-1 z"></path>
</svg>
